HIERARCHY
ROOT joint_Root
{
	OFFSET 0.0 0.0 0.0
	CHANNELS 6 Xposition Yposition Zposition Zrotation Xrotation Yrotation 
	JOINT Hips
	{
		OFFSET 4.5925 91.4895 -427.239
		CHANNELS 6 Xposition Yposition Zposition Zrotation Xrotation Yrotation 
		JOINT Spine
		{
			OFFSET 15.7357 0.0 0.0
			CHANNELS 6 Xposition Yposition Zposition Zrotation Xrotation Yrotation 
			JOINT Chest
			{
				OFFSET 8.98455 -0.406207 0.0
				CHANNELS 6 Xposition Yposition Zposition Zrotation Xrotation Yrotation 
				JOINT Neck
				{
					OFFSET 16.3773 0.0 0.0
					CHANNELS 6 Xposition Yposition Zposition Zrotation Xrotation Yrotation 
					JOINT Head
					{
						OFFSET 6.45672 0.0 0.0
						CHANNELS 6 Xposition Yposition Zposition Zrotation Xrotation Yrotation 
						End Site
						{
							OFFSET 0.0 0.0 0.0
						}
					}
				}
				JOINT Shoulder_L
				{
					OFFSET 12.9942 -0.242716 4.98039
					CHANNELS 6 Xposition Yposition Zposition Zrotation Xrotation Yrotation 
					JOINT UpperArm_L
					{
						OFFSET 5.34809 0.0 0.0
						CHANNELS 6 Xposition Yposition Zposition Zrotation Xrotation Yrotation 
						JOINT LowerArm_L
						{
							OFFSET 24.3286 1.87007e-05 0.0
							CHANNELS 6 Xposition Yposition Zposition Zrotation Xrotation Yrotation 
							JOINT Hand_L
							{
								OFFSET 22.2916 0.0 0.0
								CHANNELS 6 Xposition Yposition Zposition Zrotation Xrotation Yrotation 
								End Site
								{
									OFFSET 0.0 0.0 0.0
								}
							}
						}
					}
				}
				JOINT Shoulder_R
				{
					OFFSET 12.9945 -0.242716 -4.98039
					CHANNELS 6 Xposition Yposition Zposition Zrotation Xrotation Yrotation 
					JOINT UpperArm_R
					{
						OFFSET -5.34813 0.0 0.0
						CHANNELS 6 Xposition Yposition Zposition Zrotation Xrotation Yrotation 
						JOINT LowerArm_R
						{
							OFFSET -24.3289 0.000322201 0.0
							CHANNELS 6 Xposition Yposition Zposition Zrotation Xrotation Yrotation 
							JOINT Hand_R
							{
								OFFSET -22.2915 -0.000108084 0.0
								CHANNELS 6 Xposition Yposition Zposition Zrotation Xrotation Yrotation 
								End Site
								{
									OFFSET 0.0 0.0 0.0
								}
							}
						}
					}
				}
			}
		}
		JOINT UpperLeg_L
		{
			OFFSET -2.19248 -6.46944 0.0
			CHANNELS 6 Xposition Yposition Zposition Zrotation Xrotation Yrotation 
			JOINT LowerLeg_L
			{
				OFFSET 39.0811 0.0 -1.23785e-05
				CHANNELS 6 Xposition Yposition Zposition Zrotation Xrotation Yrotation 
				JOINT Foot_L
				{
					OFFSET 40.9854 0.0 -1.26872e-05
					CHANNELS 6 Xposition Yposition Zposition Zrotation Xrotation Yrotation 
					JOINT Toes_L
					{
						OFFSET 11.7543 0.0 0.0
						CHANNELS 6 Xposition Yposition Zposition Zrotation Xrotation Yrotation 
						End Site
						{
							OFFSET 0.0 0.0 0.0
						}
					}
				}
			}
		}
		JOINT UpperLeg_R
		{
			OFFSET -2.19251 6.46944 0.0
			CHANNELS 6 Xposition Yposition Zposition Zrotation Xrotation Yrotation 
			JOINT LowerLeg_R
			{
				OFFSET -39.0811 -0.00228153 -0.0401928
				CHANNELS 6 Xposition Yposition Zposition Zrotation Xrotation Yrotation 
				JOINT Foot_R
				{
					OFFSET -40.9854 0.0 0.0
					CHANNELS 6 Xposition Yposition Zposition Zrotation Xrotation Yrotation 
					JOINT Toes_R
					{
						OFFSET -11.7543 0.0 0.0
						CHANNELS 6 Xposition Yposition Zposition Zrotation Xrotation Yrotation 
						End Site
						{
							OFFSET 0.0 0.0 0.0
						}
					}
				}
			}
		}
	}
}
MOTION
Frames:	4
Frame Time:	0.0333333
0.000000 0.000000 0.000000 0.000000 0.000000 -0.000000 -1.568450 90.717200 -7.327910 89.155100 -2.007040 4.558690 15.735700 0.000005 -0.000001 89.326000 76.890700 -89.889100 8.984550 -0.406207 -0.000000 18.449400 -0.354731 -1.071150 16.377300 -0.000001 -0.000001 3.099530 -4.608820 2.749450 6.456720 -0.000001 -0.000000 -10.979000 -4.179450 0.943911 12.994200 -0.242716 4.980390 -91.075700 5.401260 -78.719200 5.348090 -0.000007 -0.000001 -49.467900 38.048500 -38.152300 24.328600 0.000019 0.000005 7.556330 19.134300 -22.032800 22.291600 -0.000001 0.000005 11.085400 5.221390 2.177040 12.994500 -0.242716 -4.980390 89.360400 9.240110 -86.023100 -5.348130 -0.000001 -0.000004 -53.906300 34.084700 -30.999000 -24.328900 0.000322 -0.000009 2.229510 5.092030 -23.693300 -22.291500 -0.000108 -0.000004 17.365400 5.412070 -3.334110 -2.192480 -6.469440 -0.000000 -175.718000 -10.838700 -12.247300 39.081100 -0.000007 -0.000012 -0.164400 0.253253 32.989900 40.985400 -0.000006 -0.000013 -0.292664 4.821270 -66.120900 11.754300 -0.000000 0.000003 -0.000113 -0.001145 -16.621400 -2.192510 6.469440 -0.000001 179.492000 19.684100 168.670000 -39.081100 -0.002282 -0.040193 -0.088304 0.143157 32.613500 -40.985400 0.000008 0.000006 5.989840 10.065100 -67.688300 -11.754300 -0.000006 -0.000006 -0.003028 -0.040924 -18.237400
0.000000 0.000000 0.000000 0.000000 0.000000 -0.000000 -1.580470 90.714900 -7.344210 89.128700 -1.990060 4.527720 15.735700 0.000005 -0.000001 89.281100 76.901000 -89.847000 8.984550 -0.406207 -0.000000 18.428500 -0.374818 -1.073530 16.377300 -0.000001 -0.000001 3.128770 -4.532640 2.708560 6.456720 -0.000001 -0.000000 -11.223600 -4.091850 0.882187 12.994200 -0.242716 4.980390 -91.059700 5.311850 -78.700700 5.348090 -0.000007 -0.000001 -49.572500 38.051200 -38.161400 24.328600 0.000019 0.000005 7.559840 19.114900 -22.061700 22.291600 -0.000001 0.000005 11.033400 5.220810 2.191920 12.994500 -0.242716 -4.980390 89.337700 9.175240 -85.853400 -5.348130 -0.000001 -0.000004 -54.524300 33.149300 -30.469500 -24.328900 0.000322 -0.000009 2.516110 5.408730 -25.002900 -22.291500 -0.000108 -0.000004 17.853400 5.411700 -3.321680 -2.192480 -6.469440 -0.000000 -175.686000 -10.800100 -12.295500 39.081100 -0.000007 -0.000012 -0.164894 0.253800 33.012100 40.985400 -0.000006 -0.000013 -0.299211 4.851800 -66.126300 11.754300 -0.000000 0.000003 -0.000099 -0.001022 -16.616800 -2.192510 6.469440 -0.000001 179.547000 19.722500 168.631000 -39.081100 -0.002282 -0.040193 -0.086545 0.140425 32.610500 -40.985400 0.000008 0.000006 6.006370 10.047700 -67.683400 -11.754300 -0.000006 -0.000006 -0.003180 -0.042628 -18.306800
0.000000 0.000000 0.000000 0.000000 0.000000 -0.000000 -1.591570 90.713400 -7.352730 89.115000 -1.976750 4.518200 15.735700 0.000005 -0.000001 89.181700 76.899700 -89.755700 8.984550 -0.406207 -0.000000 18.430300 -0.420156 -1.082270 16.377300 -0.000001 -0.000001 3.167520 -4.457210 2.662010 6.456720 -0.000001 -0.000000 -11.492800 -3.979000 0.807973 12.994200 -0.242716 4.980390 -91.041900 5.214200 -78.683600 5.348090 -0.000007 -0.000001 -49.619200 38.064700 -38.175800 24.328600 0.000019 0.000005 7.560540 19.085500 -22.093200 22.291600 -0.000001 0.000005 11.052800 5.221870 2.164880 12.994500 -0.242716 -4.980390 89.319100 9.085390 -85.695600 -5.348130 -0.000001 -0.000004 -55.236200 31.836200 -29.834800 -24.328900 0.000322 -0.000009 2.846400 5.642100 -26.835500 -22.291500 -0.000108 -0.000004 18.398200 5.413680 -3.387720 -2.192480 -6.469440 -0.000000 -175.673000 -10.790900 -12.324900 39.081100 -0.000007 -0.000012 -0.163334 0.251266 33.025900 40.985400 -0.000006 -0.000013 -0.305251 4.843680 -66.119800 11.754300 -0.000000 0.000003 -0.000105 -0.001077 -16.618800 -2.192510 6.469440 -0.000001 179.572000 19.699900 168.613000 -39.081100 -0.002282 -0.040193 -0.087042 0.141182 32.614100 -40.985400 0.000008 0.000006 6.033400 10.033900 -67.684700 -11.754300 -0.000006 -0.000006 -0.003239 -0.043280 -18.333300
0.000000 0.000000 0.000000 0.000000 0.000000 -0.000000 -1.595660 90.715800 -7.372030 89.082000 -1.950110 4.521360 15.735700 0.000005 -0.000001 89.084400 76.896400 -89.662300 8.984550 -0.406207 -0.000000 18.436200 -0.464321 -1.083040 16.377300 -0.000001 -0.000001 3.230860 -4.384870 2.621350 6.456720 -0.000001 -0.000000 -11.741200 -3.890560 0.753888 12.994200 -0.242716 4.980390 -91.025800 5.123680 -78.662600 5.348090 -0.000007 -0.000001 -49.720500 37.999400 -38.157800 24.328600 0.000019 0.000005 7.605710 19.164200 -22.134400 22.291600 -0.000001 0.000005 11.004400 5.221890 2.164290 12.994500 -0.242716 -4.980390 89.295000 8.979690 -85.492400 -5.348130 -0.000001 -0.000004 -55.807500 30.368500 -29.234100 -24.328900 0.000322 -0.000009 3.091340 5.531190 -29.268400 -22.291500 -0.000108 -0.000004 18.811300 5.415400 -3.445080 -2.192480 -6.469440 -0.000000 -175.640000 -10.764400 -12.339800 39.081100 -0.000007 -0.000012 -0.162013 0.249183 33.031400 40.985400 -0.000006 -0.000013 -0.308046 4.843900 -66.107700 11.754300 -0.000000 0.000003 -0.000097 -0.001006 -16.616200 -2.192510 6.469440 -0.000001 179.619000 19.740800 168.618000 -39.081100 -0.002282 -0.040193 -0.083642 0.136015 32.586200 -40.985400 0.000008 0.000006 6.064870 10.021600 -67.666500 -11.754300 -0.000006 -0.000006 -0.003089 -0.041606 -18.265200
